<svg id="Layer_1" data-name="Layer 1" xmlns="http://www.w3.org/2000/svg" xmlns:xlink="http://www.w3.org/1999/xlink" viewBox="0 0 41 39"><defs><style>.cls-1{fill:#fff;fill-rule:evenodd;}.cls-2{mask:url(#mask);}.cls-3{mask:url(#mask-2-2);}.cls-4{fill:#eb871e;}</style><mask id="mask" x="1" y="0.01" width="39" height="4.18" maskUnits="userSpaceOnUse"><g id="mask-2"><polygon id="path-1" class="cls-1" points="1 0.01 40 0.01 40 4.19 1 4.19 1 0.01"/></g></mask><mask id="mask-2-2" x="1" y="25.78" width="39" height="4.18" maskUnits="userSpaceOnUse"><g id="mask-4"><polygon id="path-3" class="cls-1" points="1 25.77 40 25.77 40 29.95 1 29.95 1 25.77"/></g></mask></defs><title>Artboard 1</title><g id="Group-3"><g class="cls-2"><g id="Fill-1"><path class="cls-1" d="M38,2.79H3.05a.7.7,0,0,1,0-1.39H38a.69.69,0,0,1,.68.7.68.68,0,0,1-.68.69M38,0H3.05A2.07,2.07,0,0,0,1,2.1,2.07,2.07,0,0,0,3.05,4.19H38A2.07,2.07,0,0,0,40,2.1,2.07,2.07,0,0,0,38,0"/></g></g></g><g id="Group-6"><g class="cls-3"><g id="Fill-4"><path class="cls-1" d="M38,28.56H3.05a.7.7,0,0,1,0-1.39H38a.7.7,0,0,1,0,1.39m0-2.78H3.05a2.09,2.09,0,0,0,0,4.17H38a2.09,2.09,0,0,0,0-4.17"/></g></g></g><g id="Fill-7"><path class="cls-1" d="M25.63,37.54a.07.07,0,0,1-.07.07H15.45a.07.07,0,0,1-.08-.07V36.3a.08.08,0,0,1,.08-.08H25.56a.08.08,0,0,1,.07.08v1.24Zm-.07-2.71H15.45A1.46,1.46,0,0,0,14,36.3v1.24A1.46,1.46,0,0,0,15.45,39H25.56A1.46,1.46,0,0,0,27,37.54V36.3a1.46,1.46,0,0,0-1.44-1.47Z"/></g><g id="Fill-9"><path class="cls-1" d="M36.58,25.78H4.42V4.19H36.58V25.78Zm.68-23H3.74a.69.69,0,0,0-.69.7v23a.69.69,0,0,0,.69.7H37.26a.69.69,0,0,0,.69-.7v-23a.69.69,0,0,0-.69-.7Z"/></g><g id="Oval"><ellipse class="cls-4" cx="10.52" cy="9.62" rx="4.19" ry="4.26"/></g><g id="Oval-2" data-name="Oval"><ellipse class="cls-4" cx="31.09" cy="19.7" rx="4.19" ry="4.26"/></g><g id="Fill-11"><path class="cls-1" d="M12.77,11,9,7.18a.67.67,0,0,0-1,0,.71.71,0,0,0,0,1L11.81,12a.65.65,0,0,0,.48.2.63.63,0,0,0,.48-.2.69.69,0,0,0,0-1"/></g><g id="Fill-13"><path class="cls-1" d="M12.77,7.18a.65.65,0,0,0-1,0L8,11a.71.71,0,0,0,0,1,.67.67,0,0,0,.49.2A.65.65,0,0,0,9,12l3.76-3.83a.69.69,0,0,0,0-1"/></g><g id="Group"><g id="Fill-15"><path class="cls-1" d="M33.35,21l-3.76-3.83a.68.68,0,0,0-1,0,.73.73,0,0,0,0,1L32.39,22a.69.69,0,0,0,.48.2.67.67,0,0,0,.48-.2.71.71,0,0,0,0-1"/></g><g id="Fill-17"><path class="cls-1" d="M33.35,17.19a.67.67,0,0,0-1,0L28.62,21a.73.73,0,0,0,0,1,.71.71,0,0,0,.49.2.69.69,0,0,0,.48-.2l3.76-3.83a.71.71,0,0,0,0-1"/></g></g><g id="Fill-19"><path class="cls-1" d="M27,9.06a.69.69,0,0,0-.68.7V12A14,14,0,0,0,17.8,8a.68.68,0,0,0-.72.65.71.71,0,0,0,.64.74,12.58,12.58,0,0,1,8.72,4.93.68.68,0,0,0,.56.29l.21,0a.7.7,0,0,0,.48-.66V9.76a.69.69,0,0,0-.69-.7"/></g><g id="Fill-21"><polygon class="cls-1" points="22.9 14.63 27 14.63 27 13.24 22.9 13.24 22.9 14.63"/></g><g id="Fill-23"><path class="cls-1" d="M20.16,34.83h.68V30h-.68Zm1.37-6.27H19.48a.69.69,0,0,0-.69.7v6.27a.69.69,0,0,0,.69.69h2.05a.68.68,0,0,0,.68-.69V29.26a.69.69,0,0,0-.68-.7Z"/></g></svg>