<?xml version="1.0" encoding="utf-8"?>
<!-- Generator: Adobe Illustrator 24.0.3, SVG Export Plug-In . SVG Version: 6.00 Build 0)  -->
<svg version="1.1" id="Layer_1" xmlns="http://www.w3.org/2000/svg" xmlns:xlink="http://www.w3.org/1999/xlink" x="0px" y="0px"
	 viewBox="0 0 41 39" style="enable-background:new 0 0 41 39;" xml:space="preserve">
<style type="text/css">
	.st0{fill-rule:evenodd;clip-rule:evenodd;fill:#eb871e;}
	.st1{fill-rule:evenodd;clip-rule:evenodd;fill:#FFFFFF;}
	.st2{fill:#FFFFFF;}
</style>
<title>Artboard 5</title>
<g id="Icons_x2F_70px_x2F_Books-2">
	<g id="Path-3">
		<polygon class="st0" points="8.6,38.1 8.6,27.8 13.4,27.8 13.4,38.1 11,37.4 		"/>
	</g>
	<g id="Group-9-Copy-2" transform="translate(9.000000, 14.000000)">
		<g id="Group-8" transform="translate(0.000000, 0.013800)">
			<g id="Group-4">
				<g id="Clip-3">
				</g>
				<g id="Fill-2">
					<path class="st1" d="M25.3,13.3h-6.4v1.1h6.4V18H5v-1.2h17.8v-1.1H5v-1.3h11.2v-1.1H-2.3v1.1H-1v1.3h-1.3v1.1H-1V18h-1
						c-1.6,0-2.9-1.3-2.9-2.9s1.3-2.9,2.9-2.9h27.3V13.3z M3.9,23.4L2,22.7l-1.9,0.7v-9.1h1.4v2.4h1.1v-2.4H4L3.9,23.4L3.9,23.4z
						 M-1,21.1h-1c-3.3,0-6.1-2.7-6.1-6.1c0-3.3,2.8-6,6.1-6h28.8v2H-2c-2.2,0-4,1.8-4,4s1.8,4,4,4h1V21.1z M-6.6,3.5h6.4V2.4h-6.4
						V1.1H8.7V0H-6.6v-1.2h27.3c1.6,0,2.9,1.3,2.9,2.9s-1.3,2.9-2.9,2.9H-6.6V3.5z M27.9,12.1V7.9h-3.4c2.1-1.3,3.4-3.6,3.4-6.2
						c0-3.9-3.3-7.1-7.2-7.1h-21v1.1h20.9c3.4,0,6.1,2.7,6.1,6c0,3.4-2.7,6.1-6.1,6.1H-8.1v-2h28.8c2.2,0,4-1.8,4-4s-1.8-4-4-4H-8.1
						v-2h6.7v-1.1h-7.8v4.2h1.5v5.8h-1.5v4.2h3.4c-2,1.3-3.4,3.5-3.4,6.1c0,3.9,3.2,7.1,7.1,7.1h1V25l3-1.1L5,25v-2.9h16V21H5v-2
						h21.8v2h-4.7v1.1h5.7v-4.2h-1.5v-5.8C26.3,12.1,27.9,12.1,27.9,12.1z"/>
				</g>
			</g>
			<g id="Fill-5">
				<polygon class="st1" points="2.5,3.5 21,3.5 21,2.4 2.5,2.4 				"/>
			</g>
			<g id="Fill-7">
				<polygon class="st1" points="11.9,1.1 21,1.1 21,0 11.9,0 				"/>
			</g>
		</g>
	</g>
	<g id="Oval">
		<circle class="st0" cx="33.8" cy="10.8" r="6.5"/>
		<path class="st2" d="M33.8,17.8c-3.9,0-7-3.2-7-7c0-3.9,3.2-7,7-7s7,3.2,7,7C40.9,14.6,37.7,17.8,33.8,17.8z M33.8,4.8
			c-3.3,0-6,2.7-6,6s2.7,6,6,6s6-2.7,6-6S37.1,4.8,33.8,4.8z"/>
	</g>
	<g id="Path-4">
		<path class="st2" d="M33.2,13.6c-0.2,0-0.4-0.1-0.5-0.2l-1.4-1.6c-0.3-0.3-0.2-0.8,0.1-1c0.3-0.3,0.8-0.2,1,0.1l0.7,0.8l2-3.4
			c0.2-0.3,0.6-0.5,1-0.3c0.3,0.2,0.5,0.6,0.3,1l-2.5,4.3C33.7,13.4,33.5,13.6,33.2,13.6C33.3,13.6,33.3,13.6,33.2,13.6z"/>
	</g>
</g>
</svg>
