<svg id="Layer_1" data-name="Layer 1" xmlns="http://www.w3.org/2000/svg" xmlns:xlink="http://www.w3.org/1999/xlink" viewBox="0 0 41 39"><defs><style>.cls-1,.cls-2{fill:#fff;}.cls-1,.cls-4{fill-rule:evenodd;}.cls-3{mask:url(#mask);}.cls-4{fill:#f4a85d;}</style><mask id="mask" x="1.55" y="4.94" width="21.45" height="14.23" maskUnits="userSpaceOnUse"><g id="mask-2"><polygon id="path-1" class="cls-1" points="1.55 4.94 23 4.94 23 19.17 1.55 19.17 1.55 4.94"/></g></mask></defs><title>Artboard 2</title><g id="Group-11-Copy"><g id="Stroke-1"><path class="cls-2" d="M26.36,31.05a5.69,5.69,0,0,1-5.72-5.64V23a5.72,5.72,0,0,1,11.44,0v2.45A5.69,5.69,0,0,1,26.36,31.05Zm0-12.25A4.19,4.19,0,0,0,22.15,23v2.45a4.21,4.21,0,0,0,8.42,0V23A4.19,4.19,0,0,0,26.36,18.8Z"/></g><g id="Stroke-3"><path class="cls-2" d="M26.3,34A4,4,0,0,1,23,31.88l1.34-.69a2.5,2.5,0,0,0,2,1.37Z"/></g><g id="Stroke-5"><path class="cls-2" d="M26.31,38.94H17.88a.76.76,0,0,1-.75-.75V36.07a3.89,3.89,0,0,1,2.51-3.78L22.9,31V29.64h1.5v1.89a.73.73,0,0,1-.48.69l-3.75,1.46A2.44,2.44,0,0,0,18.63,36v1.41h7.68Z"/></g><g id="Stroke-7"><path class="cls-2" d="M26.31,34l0-1.48a2.52,2.52,0,0,0,2-1.37l1.33.69A4,4,0,0,1,26.31,34Z"/></g><g id="Stroke-9"><path class="cls-2" d="M34.73,38.94H26.31V37.45H34V36.07a2.44,2.44,0,0,0-1.52-2.38l-3.77-1.47a.73.73,0,0,1-.48-.69V29.64h1.5V31L33,32.3a3.9,3.9,0,0,1,2.48,3.8v2.09A.76.76,0,0,1,34.73,38.94Z"/></g></g><g id="Group-15"><g id="Group-3"><g class="cls-3"><g id="Fill-1"><path class="cls-4" d="M10.16,13.76H3.34A1.78,1.78,0,0,1,1.55,12V6.7A1.78,1.78,0,0,1,3.34,4.94H21.21A1.78,1.78,0,0,1,23,6.7V12a1.78,1.78,0,0,1-1.79,1.77H16.74v5.41Z"/></g></g></g><g id="Fill-4"><polygon class="cls-1" points="17.64 10.23 19.42 10.23 19.42 8.46 17.64 8.46 17.64 10.23"/></g><g id="Fill-6"><polygon class="cls-1" points="8.7 10.23 15.85 10.23 15.85 8.46 8.7 8.46 8.7 10.23"/></g><g id="Fill-7"><polygon class="cls-1" points="5.13 10.23 6.91 10.23 6.91 8.46 5.13 8.46 5.13 10.23"/></g><g id="Group"><g id="Fill-10"><path class="cls-4" d="M29.3,26.4V21h-3a1.77,1.77,0,0,1-1.78-1.76v-5.3a1.77,1.77,0,0,1,1.78-1.76H39.21A1.78,1.78,0,0,1,41,13.93v5.3A1.78,1.78,0,0,1,39.21,21H35.88Z"/></g><g id="Fill-11"><polygon class="cls-1" points="28.16 17.46 29.95 17.46 29.95 15.7 28.16 15.7 28.16 17.46"/></g><g id="Fill-12"><polygon class="cls-1" points="31.66 17.46 33.45 17.46 33.45 15.7 31.66 15.7 31.66 17.46"/></g><g id="Fill-13"><polygon class="cls-1" points="35.31 17.46 37.1 17.46 37.1 15.7 35.31 15.7 35.31 17.46"/></g></g></g><g id="Group-11"><g id="Stroke-1-2" data-name="Stroke-1"><path class="cls-2" d="M9.23,31.05a5.69,5.69,0,0,1-5.72-5.64V23A5.72,5.72,0,0,1,15,23v2.45A5.68,5.68,0,0,1,9.23,31.05Zm0-12.25A4.19,4.19,0,0,0,5,23v2.45a4.22,4.22,0,0,0,8.43,0V23A4.19,4.19,0,0,0,9.23,18.8Z"/></g><g id="Stroke-3-2" data-name="Stroke-3"><path class="cls-2" d="M9.17,34a4,4,0,0,1-3.31-2.16l1.33-.69a2.5,2.5,0,0,0,2,1.37Z"/></g><g id="Stroke-5-2" data-name="Stroke-5"><path class="cls-2" d="M9.18,38.94H.76A.76.76,0,0,1,0,38.19V36.07a3.9,3.9,0,0,1,2.51-3.78L5.77,31V29.64h1.5v1.89a.74.74,0,0,1-.47.69L3,33.68A2.44,2.44,0,0,0,1.51,36v1.41H9.18Z"/></g><g id="Stroke-7-2" data-name="Stroke-7"><path class="cls-2" d="M9.19,34l0-1.48a2.5,2.5,0,0,0,2-1.37l1.33.69A4,4,0,0,1,9.19,34Z"/></g><g id="Stroke-9-2" data-name="Stroke-9"><path class="cls-2" d="M17.6,38.94H9.18V37.45h7.67V36.07a2.46,2.46,0,0,0-1.51-2.38l-3.78-1.47a.73.73,0,0,1-.48-.69V29.64h1.51V31l3.28,1.27a3.89,3.89,0,0,1,2.48,3.8v2.09A.75.75,0,0,1,17.6,38.94Z"/></g></g></svg>