<?xml version="1.0" encoding="utf-8"?>
<!-- Generator: Adobe Illustrator 24.0.3, SVG Export Plug-In . SVG Version: 6.00 Build 0)  -->
<svg version="1.1" id="Layer_1" xmlns="http://www.w3.org/2000/svg" xmlns:xlink="http://www.w3.org/1999/xlink" x="0px" y="0px"
	 viewBox="0 0 41 39" style="enable-background:new 0 0 41 39;" xml:space="preserve">
<style type="text/css">
	.st0{fill-rule:evenodd;clip-rule:evenodd;fill:#FFFFFF;}
	.st1{fill-rule:evenodd;clip-rule:evenodd;fill:#F59329;}
</style>
<title>Artboard 5</title>
<g id="Icons_x2F_70px_x2F_Bank">
	<g id="Group-12" transform="translate(5.000000, 14.000000)">
		<g id="Group-3" transform="translate(0.000000, 0.117480)">
			<g id="Clip-2">
			</g>
			<path id="Fill-1" class="st0" d="M-3.8,18.2C-3.7,18.2-3.7,18.2-3.8,18.2c0.2-0.6,0.3-1.3,0.5-1.9c0.2-0.9,0.5-1.7,0.5-2.6
				c0-4.1,0-8.3,0-12.4c0-0.8,0.2-1,1-1c2.6,0,5.2,0,7.8,0c0.1,0,0.2,0,0.4,0C5.2-0.8,3.9-1.4,2.3-1.4c-1.9,0-3.9,0-5.8,0
				c-0.1,0-0.2,0-0.3,0C-3.8-1.4-3.8,18.2-3.8,18.2z M-1.6,1.6v6.5C-1.5,8-1.5,7.8-1.4,7.7c0.3-1.4,0.6-2.8,0.9-4.2
				c0.2-0.8,0.3-0.9,1.1-0.9c9.4,0,18.9,0,28.3,0h0.5v-1C29.4,1.6-1.6,1.6-1.6,1.6z M-5-2.1c0.2-0.4,0.5-0.5,0.9-0.5
				c2.1,0,4.2,0,6.4,0c2.3,0,4.1,0.9,5.6,2.7C8,0.3,8.1,0.4,8.4,0.4c7,0,14,0,21.1,0c0.1,0,0.2,0,0.4,0c0.5,0,0.7,0.2,0.7,0.7
				s0,1,0,1.5c0.4,0,0.7,0,1,0c1.1,0,2.3,0,3.4,0c0.6,0,0.9,0.3,0.7,0.9c-0.8,3.9-1.7,7.7-2.5,11.6c0,0.1,0,0.1-0.1,0.2
				c-0.1,0.4-0.4,0.5-0.7,0.5c-0.3-0.1-0.5-0.4-0.4-0.7c0.2-1.1,0.5-2.2,0.7-3.3c0.6-2.6,1.1-5.1,1.7-7.7c0-0.1,0-0.1,0-0.2H0.6
				C-0.8,10.4-2.2,17-3.6,23.7c0.2,0,0.3,0,0.4,0c11,0,22,0,32.9,0c0.3,0,0.4-0.1,0.5-0.4c0.3-1.7,0.7-3.4,1.1-5.1
				c0-0.1,0-0.2,0.1-0.3c0.1-0.4,0.4-0.6,0.7-0.5c0.3,0.1,0.5,0.4,0.5,0.8c-0.4,2-0.9,4.1-1.3,6.1c-0.1,0.4-0.3,0.6-0.8,0.6
				c-2.3,0-4.6,0-6.9,0c-9.2,0-18.4,0-27.6,0c-0.4,0-0.7-0.1-1-0.4C-5,24.5-5-2.1-5-2.1z"/>
		</g>
		<path id="Fill-4" class="st0" d="M9.4,9.1c-0.4,2-0.8,4-1.2,6H24c0.4-2,0.8-4,1.2-6H9.4z M17.4,7.9c2.7,0,5.5,0,8.2,0
			c0.7,0,1,0.2,0.8,1c-0.5,2.3-0.9,4.6-1.4,6.9c-0.1,0.5-0.3,0.7-0.8,0.7c-5.5,0-11,0-16.6,0c-0.7,0-0.9-0.3-0.8-0.9
			c0.5-2.3,0.9-4.6,1.4-6.9C8.3,8,8.5,7.9,9.1,7.9C11.8,7.9,14.6,7.9,17.4,7.9L17.4,7.9z"/>
		<path id="Fill-6" class="st0" d="M15.4,19.2c-2.7,0-5.5,0-8.2,0c-0.1,0-0.3,0-0.3,0c-0.2-0.1-0.4-0.3-0.5-0.5
			c-0.1-0.3,0.1-0.5,0.4-0.6C6.9,18,7,18,7.2,18c5.5,0,10.9,0,16.4,0c0.2,0,0.3,0,0.5,0.1c0.3,0.1,0.4,0.3,0.4,0.6
			c0,0.3-0.2,0.5-0.5,0.5c-0.2,0-0.3,0-0.5,0C20.8,19.2,18.1,19.2,15.4,19.2L15.4,19.2z"/>
		<path id="Fill-8" class="st1" d="M-1.6,1.7h30.9v1.1h-0.5c-9.4,0-18.9,0-28.3,0c-0.8,0-0.9,0.1-1.1,0.9C-0.8,5-1.1,6.4-1.4,7.8
			c0,0.1-0.1,0.2-0.1,0.3V1.7H-1.6z"/>
		<path id="Fill-10" class="st1" d="M9.4,9.1h15.8c-0.4,2-0.8,4-1.2,6H8.1C8.6,13.1,9,11.1,9.4,9.1"/>
	</g>
</g>
</svg>
