<svg id="Layer_1" data-name="Layer 1" xmlns="http://www.w3.org/2000/svg" xmlns:xlink="http://www.w3.org/1999/xlink" viewBox="0 0 41 39"><defs><style>.cls-1{fill:#fff;fill-rule:evenodd;}.cls-2{mask:url(#mask);}.cls-3{fill:#eb871e;}</style><mask id="mask" x="6" y="0" width="30" height="39" maskUnits="userSpaceOnUse"><g id="mask-2"><polygon id="path-1" class="cls-1" points="6 39 36 39 36 0 6 0 6 39"/></g></mask></defs><title>Artboard 3</title><g id="Group-13"><g id="Fill-1"><path class="cls-1" d="M34.87,36A1.85,1.85,0,0,1,33,37.86H9A1.85,1.85,0,0,1,7.13,36V6.07A1.85,1.85,0,0,1,9,4.2h4.85v.65a2.81,2.81,0,0,0,.07.65H9.57A1.17,1.17,0,0,0,8.41,6.68V35.37a1.17,1.17,0,0,0,1.16,1.19H32.43a1.17,1.17,0,0,0,1.16-1.19V6.68A1.17,1.17,0,0,0,32.43,5.5H28.11a2.81,2.81,0,0,0,.07-.65V4.2H33a1.85,1.85,0,0,1,1.84,1.87ZM15,3a0,0,0,0,1,0,0H27a0,0,0,0,1,0,0v.61h0V4.85a1.85,1.85,0,0,1-1.84,1.87H16.79A1.85,1.85,0,0,1,15,4.85Zm4.21-1.22a.65.65,0,0,1,.64-.65h2.4a.65.65,0,0,1,.64.65v0H19.16Zm8.46,4.85h4.81a0,0,0,0,1,0,0V35.37a0,0,0,0,1,0,0H9.57a0,0,0,0,1,0,0V6.68a0,0,0,0,1,0,0H14.4a3,3,0,0,0,2.39,1.22h8.42A3,3,0,0,0,27.6,6.64ZM33,3.05H28.18V3A1.17,1.17,0,0,0,27,1.83H24v0A1.78,1.78,0,0,0,22.2,0H19.8A1.78,1.78,0,0,0,18,1.79v0H15A1.17,1.17,0,0,0,13.82,3v0H9a3,3,0,0,0-3,3V36a3,3,0,0,0,3,3H33a3,3,0,0,0,3-3V6.07a3,3,0,0,0-3-3Z"/></g><g class="cls-2"><g id="Rectangle"><rect class="cls-3" x="12.77" y="27.48" width="4.51" height="4.58"/></g></g><g class="cls-2"><g id="Rectangle-2" data-name="Rectangle"><rect class="cls-3" x="12.77" y="10.68" width="4.51" height="4.58"/></g></g><g class="cls-2"><g id="Fill-3"><path class="cls-1" d="M13.14,15.26h3.69V11.52H13.14Zm-.49,1.15h4.67a.64.64,0,0,0,.63-.65V11a.64.64,0,0,0-.63-.65H12.65A.64.64,0,0,0,12,11v4.73a.64.64,0,0,0,.63.65Z"/></g></g><g class="cls-2"><g id="Fill-5"><path class="cls-1" d="M13.14,31.14h3.69V27.4H13.14Zm4.18-4.89H12.65a.64.64,0,0,0-.63.65v4.74a.64.64,0,0,0,.63.64h4.67a.64.64,0,0,0,.63-.64V26.9a.64.64,0,0,0-.63-.65Z"/></g></g><g class="cls-2"><g id="Fill-6"><path class="cls-1" d="M18.2,18.48l-.41.42a1.16,1.16,0,0,0-1-.58H13.18A1.17,1.17,0,0,0,12,19.5v3.66a1.17,1.17,0,0,0,1.16,1.19h3.61A1.17,1.17,0,0,0,18,23.16v-.61a.56.56,0,1,0-1.12,0v.61a0,0,0,0,1,0,0H13.18a0,0,0,0,1,0,0V19.5a0,0,0,0,1,0,0h3.61a0,0,0,0,1,0,0v.37l-1.24,1.26-.81-.81a.55.55,0,0,0-.8,0,.58.58,0,0,0,0,.81l1.21,1.22a.55.55,0,0,0,.4.16.57.57,0,0,0,.4-.16l1.8-1.83h0L19,19.29a.58.58,0,0,0,0-.81.56.56,0,0,0-.79,0"/></g></g><g class="cls-2"><g id="Fill-7"><path class="cls-1" d="M19.8,12.14h1.8a.58.58,0,0,0,0-1.15H19.8a.58.58,0,0,0,0,1.15"/></g></g><g class="cls-2"><g id="Fill-8"><path class="cls-1" d="M19.23,14a.58.58,0,0,0,.57.58h9a.58.58,0,0,0,0-1.15h-9a.58.58,0,0,0-.57.57"/></g></g><g class="cls-2"><g id="Fill-9"><path class="cls-1" d="M19.8,20.68h6a.57.57,0,1,0,0-1.14h-6a.57.57,0,1,0,0,1.14"/></g></g><g class="cls-2"><g id="Fill-10"><path class="cls-1" d="M28.82,22h-9a.58.58,0,0,0,0,1.15h9a.58.58,0,0,0,0-1.15"/></g></g><g class="cls-2"><g id="Fill-11"><path class="cls-1" d="M19.8,28.62h2.4a.58.58,0,0,0,.57-.57.57.57,0,0,0-.57-.57H19.8a.57.57,0,0,0-.57.57.58.58,0,0,0,.57.57"/></g></g><g class="cls-2"><g id="Fill-12"><path class="cls-1" d="M28.82,29.92h-9a.57.57,0,1,0,0,1.14h9a.57.57,0,0,0,0-1.14"/></g></g></g></svg>