<svg id="Layer_1" data-name="Layer 1" xmlns="http://www.w3.org/2000/svg" viewBox="0 0 41 39"><defs><style>.cls-1,.cls-4{fill:#fff;}.cls-2,.cls-3{fill:#eb871e;}.cls-2,.cls-4{fill-rule:evenodd;}</style></defs><title>Artboard 5</title><g id="Group-9"><g id="Stroke-1"><path class="cls-1" d="M37.05,33.42H3.3V11.58A4.62,4.62,0,0,1,8,7H32.78a4.25,4.25,0,0,1,4.27,4.21ZM4.81,31.92H35.53V11.21A2.73,2.73,0,0,0,32.78,8.5H8a3.11,3.11,0,0,0-3.14,3.08Z"/></g><g id="Stroke-3"><path class="cls-1" d="M35.87,39H3.62L1.29,35.07a2,2,0,0,1,0-2.09,2.1,2.1,0,0,1,1.84-1.06H37.27a1.76,1.76,0,0,1,1.52.88,1.68,1.68,0,0,1-.06,1.73ZM4.49,37.5H35l2.42-3.77a.2.2,0,0,0-.18-.31H3.13a.6.6,0,0,0-.53.3.59.59,0,0,0,0,.6Z"/></g><g id="Stroke-5"><path class="cls-2" d="M20.46,28.71V17.29s-2.29-3.94-7.77-2.07V26.75A9.9,9.9,0,0,1,20.46,28.71Z"/><path class="cls-3" d="M20.46,29.7a1.09,1.09,0,0,1-.62-.2,8.83,8.83,0,0,0-6.91-1.78,1,1,0,0,1-.86-.19,1,1,0,0,1-.39-.78V15.22a1,1,0,0,1,.68-.94c5-1.7,8,.91,9,2.52a1,1,0,0,1,.13.49V28.71a1,1,0,0,1-1,1ZM14.3,25.61a11.07,11.07,0,0,1,5.15,1.27V17.59C19,17,17.21,15.05,13.7,16v9.66Z"/></g><g id="Stroke-7"><path class="cls-2" d="M20.17,28.71V17.29s2.29-3.94,7.77-2.07V26.75A9.9,9.9,0,0,0,20.17,28.71Z"/><path class="cls-3" d="M20.17,29.7a1,1,0,0,1-.44-.1,1,1,0,0,1-.57-.89V17.29a1.05,1.05,0,0,1,.13-.49c.94-1.61,4-4.21,9-2.52a1,1,0,0,1,.68.94V26.75a1,1,0,0,1-1.25,1,8.83,8.83,0,0,0-6.91,1.78A1.07,1.07,0,0,1,20.17,29.7Zm1-12.1v9.28a11.15,11.15,0,0,1,5.75-1.26V16C23.43,15.06,21.67,17,21.18,17.6Z"/></g><g id="Fill-5"><polygon class="cls-4" points="13.46 21.06 14.22 21.06 14.22 19.27 13.46 19.27 13.46 21.06"/></g><g id="Fill-5-Copy"><polygon class="cls-4" points="21.77 21.06 22.52 21.06 22.52 19.27 21.77 19.27 21.77 21.06"/></g><g id="Fill-5-Copy-2"><polygon class="cls-4" points="13.46 24.03 17.99 24.03 17.99 22.25 13.46 22.25 13.46 24.03"/></g><g id="Fill-5-Copy-3"><polygon class="cls-4" points="18.75 24.03 19.5 24.03 19.5 22.25 18.75 22.25 18.75 24.03"/></g><g id="Fill-7"><polygon class="cls-4" points="14.97 21.06 19.5 21.06 19.5 19.27 14.97 19.27 14.97 21.06"/></g><g id="Fill-7-Copy"><polygon class="cls-4" points="23.28 21.06 25.54 21.06 25.54 19.27 23.28 19.27 23.28 21.06"/></g><g id="Fill-7-Copy-2"><polygon class="cls-4" points="21.77 24.03 24.03 24.03 24.03 22.25 21.77 22.25 21.77 24.03"/></g><g id="Fill-8-Copy"><polygon class="cls-4" points="26.3 21.06 27.05 21.06 27.05 19.27 26.3 19.27 26.3 21.06"/></g><g id="Fill-8-Copy-2"><polygon class="cls-4" points="24.79 24.03 27.05 24.03 27.05 22.25 24.79 22.25 24.79 24.03"/></g></g></svg>