<svg id="Layer_1" data-name="Layer 1" xmlns="http://www.w3.org/2000/svg" viewBox="0 0 41 39"><defs><style>.cls-1{fill:#fff;}.cls-2{fill:#eb871e;}</style></defs><title>Artboard 6</title><g id="Group-9-Copy"><g id="Stroke-1"><path class="cls-1" d="M37.49,33.42H3.74V11.58A4.62,4.62,0,0,1,8.39,7H33.22a4.25,4.25,0,0,1,4.27,4.21ZM5.25,31.93H36V11.21A2.73,2.73,0,0,0,33.22,8.5H8.39a3.11,3.11,0,0,0-3.14,3.08Z"/></g><g id="Oval"><ellipse class="cls-2" cx="20.7" cy="20.02" rx="9.06" ry="8.92"/></g><g id="Stroke-3"><path class="cls-1" d="M36.31,39H4.06L1.73,35.07a2,2,0,0,1,0-2.09,2.1,2.1,0,0,1,1.84-1H37.71a1.75,1.75,0,0,1,1.52.87,1.68,1.68,0,0,1-.06,1.73ZM4.93,37.5H35.47l2.42-3.77a.2.2,0,0,0-.18-.31H3.57a.6.6,0,0,0-.53.3.59.59,0,0,0,0,.6Z"/></g><g id="Triangle"><path class="cls-1" d="M19.19,24a1.59,1.59,0,0,1-.48-.07,1.52,1.52,0,0,1-.88-.75,1.57,1.57,0,0,1-.16-.67v-5A1.51,1.51,0,0,1,19.19,16a1.54,1.54,0,0,1,.67.16L25,18.68a1.53,1.53,0,0,1,.76.86,1.46,1.46,0,0,1-.08,1.14,1.52,1.52,0,0,1-.68.67l-5.11,2.52A1.56,1.56,0,0,1,19.19,24Zm0-6.51v5L24.29,20Zm5.1,2.5.34.67L24.29,20Z"/></g></g></svg>