<svg id="Layer_1" data-name="Layer 1" xmlns="http://www.w3.org/2000/svg" viewBox="0 0 41 39"><defs><style>.cls-1{fill:#fff;}.cls-2{fill:#eb871e;fill-rule:evenodd;}</style></defs><title>Artboard 4</title><g id="Group-7"><g id="Stroke-1"><path class="cls-1" d="M3.45,38A1.5,1.5,0,0,1,2,36.1L4.24,28a18.19,18.19,0,0,1-2.15-8.61,18.44,18.44,0,0,1,31.46-13,18.17,18.17,0,0,1,5.39,13A18.41,18.41,0,0,1,20.51,37.71a18.62,18.62,0,0,1-8.27-2L3.83,38A1.58,1.58,0,0,1,3.45,38ZM20.51,2.49a16.85,16.85,0,0,0-14.82,25l.15.26L3.44,36.5v0h0l9-2.34.25.13a17.1,17.1,0,0,0,7.84,1.92A16.92,16.92,0,0,0,37.45,19.36,16.9,16.9,0,0,0,20.51,2.49Z"/></g><g id="Fill-3"><path class="cls-2" d="M13.64,20a8.17,8.17,0,0,1-1.72-4.35,4.71,4.71,0,0,1,1.48-3.52,1.53,1.53,0,0,1,1.12-.52h.81c.31,0,.64,0,1,.72s1.19,2.92,1.3,3.13a.8.8,0,0,1,0,.74,13.27,13.27,0,0,1-1.05,1.44c-.19.23-.44.44-.19.86a12.87,12.87,0,0,0,2.35,2.91,11.51,11.51,0,0,0,3.4,2.09c.43.21.67.18.92-.1s1.06-1.23,1.34-1.65.56-.36.95-.21,2.47,1.15,2.89,1.36.7.32.81.5a3.41,3.41,0,0,1-.25,2,4.28,4.28,0,0,1-2.85,2c-.78.07-1.5.35-5.07-1.05-4.3-1.69-7-6.08-7.23-6.36Zm6.87,13.4a14,14,0,0,0,14.07-14,14,14,0,0,0-14.06-14A14,14,0,0,0,8.6,26.8l.33.53L7.51,32.5l5.33-1.39.51.3a14,14,0,0,0,7.16,1.95Z"/></g></g></svg>